# xmcd
#
# Track frame offsets:
#	150
#	14638
#	84096
#	135617
#	188229
#	226042
#	240164
#	263086
#
# Disc length: 3817 seconds
#
# Revision: 1
# Processed by: cddbd v1.5.2PL0 Copyright (c) Steve Scherf et al.
# Submitted via: MusicManager 7.2.0.0 
#
DISCID=540ee708
DTITLE=Ellington, Duke  - De Legendes Van de Jazz vol.2 cd1
DYEAR=2007
DGENRE=Jazz
TTITLE0=Great times
TTITLE1=Mood indigo
TTITLE2=Sophisticated lady
TTITLE3=The tattooed bride
TTITLE4=Solitude
TTITLE5=Brown Betty
TTITLE6=Sompin' at the Savoy
TTITLE7=Black and tan fantasy
EXTD=YEAR: 2004
EXTT0=
EXTT1=
EXTT2=
EXTT3=
EXTT4=
EXTT5=
EXTT6=
EXTT7=
PLAYORDER=
